[img]http://img713.imageshack.us/img713/7489/montep.jpg[/img]
[code]
Monte Carlo 2011 R5 READNFO XViD  - IMAGiNE

Ripper ...........: IMAGiNE                                        IMDB Rating.......:5.3/10                             
Video Codec.......: XVID                                         Release Date......:04/08/11
Audio Codec.......:MP3                                           Theatre Date......:01/07/11
Audio Bitrate.....:128                                              Runtime.......:1h 44mn
Subtitles.........:NIL                                                 Language..........:ENGLISH
Resolution...... 720 x 384                                      IMDb URL..........:http://www.imdb.com/title/tt1067774/

DETAILS:

Video
ID                               : 0
Format                           : MPEG-4 Visual
Format profile                   : Advanced Simple@L5
Format settings, BVOP            : 2
Format settings, QPel            : No
Format settings, GMC             : No warppoints
Format settings, Matrix          : Default (MPEG)
Muxing mode                      : Packed bitstream
Codec ID                         : XVID
Codec ID/Hint                    : XviD
Duration                         : 1h 44mn
Bit rate                         : 1 744 Kbps
Width                            : 720 pixels
Height                           : 384 pixels
Display aspect ratio             : 1.875
Frame rate                       : 25.000 fps
Color space                      : YUV
Chroma subsampling               : 4:2:0
Bit depth                        : 8 bits
Scan type                        : Progressive
Compression mode                 : Lossy
Bits/(Pixel*Frame)               : 0.252
Stream size                      : 1.27 GiB (93%)
Writing library                  : XviD 64

Audio
ID                               : 1
Format                           : MPEG Audio
Format version                   : Version 1
Format profile                   : Layer 3
Codec ID                         : 55
Codec ID/Hint                    : MP3
Duration                         : 1h 44mn
Bit rate mode                    : Constant
Bit rate                         : 128 Kbps
Channel(s)                       : 2 channels
Sampling rate                    : 44.1 KHz
Compression mode                 : Lossy
Stream size                      : 95.5 MiB (7%)
Alignment                        : Split accross interleaves
Interleave, duration             : 40 ms (1.00 video frame)

Plot:
Three young women vacationing in Paris find themselves whisked away to Monte Carlo after one of the girls is mistaken for a British heiress.

SOURCES:
VIDEO: ............... Monte.Carlo.2011.DVD.RELIZLAB
AUDIO: ............... FOOKNOWS    Thanks 

NOTES:
IMAGiNE bringing you another release..........
Monte Carlo R5.......
Ok heres our go at Monte Carlo......
First we made a script to crop and resize.....
then we filtered the cam audio as it was very hollow and muffled, so we did what we could to get it better and now it is 
Enjoy Folks!
[/code]
Screens:
[img]http://img64.imageshack.us/img64/6113/14972395.png[/img]
[img]http://img8.imageshack.us/img8/1283/16569111.png[/img]
[img]http://img820.imageshack.us/img820/7797/91926802.png[/img]
[img]http://img714.imageshack.us/img714/8990/97469517.png[/img]